<svg width="80" height="80" viewBox="0 0 80 80" fill="none" xmlns="http://www.w3.org/2000/svg">
<g clip-path="url(#clip0_301_179)">
<circle cx="40" cy="40" r="40" fill="black"/>
<path d="M37.22 46.572C37.22 49.5533 36.145 51.7033 33.995 53.022C31.8737 54.3407 29.2507 55 26.126 55H18.128V25.373H25.438C28.448 25.373 30.942 25.9607 32.92 27.136C34.9267 28.2827 35.93 30.189 35.93 32.855C35.93 34.6323 35.3997 36.0657 34.339 37.155C33.2783 38.2157 31.9597 38.9323 30.383 39.305C34.941 40.079 37.22 42.5013 37.22 46.572ZM32.103 33.07C32.103 31.436 31.6013 30.2607 30.598 29.544C29.5947 28.7987 28.1613 28.426 26.298 28.426H21.869V37.972H26.642C30.2827 37.972 32.103 36.338 32.103 33.07ZM33.264 46.701C33.264 44.6083 32.6907 43.1463 31.544 42.315C30.426 41.4837 28.878 41.068 26.9 41.068H21.869V51.904H26.771C28.577 51.904 30.1107 51.5313 31.372 50.786C32.6333 50.0407 33.264 48.679 33.264 46.701ZM51.8232 52.506C53.5432 52.506 54.9049 52.1763 55.9082 51.517C56.9115 50.8577 57.4132 49.9833 57.4132 48.894C57.4132 48.1487 57.2842 47.5467 57.0262 47.088C56.7682 46.6007 56.2522 46.1707 55.4782 45.798C54.7042 45.3967 53.5289 44.9953 51.9522 44.594C49.3149 43.9347 47.3655 43.1463 46.1042 42.229C44.8429 41.283 44.2122 39.8927 44.2122 38.058C44.2122 36.166 45.0005 34.661 46.5772 33.543C48.1539 32.425 50.2322 31.866 52.8122 31.866C55.9655 31.866 58.7175 32.6973 61.0682 34.36L59.4342 36.854C58.4882 36.1947 57.4992 35.693 56.4672 35.349C55.4352 34.9763 54.2455 34.79 52.8982 34.79C49.6302 34.79 47.9962 35.779 47.9962 37.757C47.9962 38.445 48.1682 39.004 48.5122 39.434C48.8849 39.864 49.4725 40.251 50.2752 40.595C51.1065 40.9103 52.3392 41.2973 53.9732 41.756C56.4385 42.4153 58.2732 43.261 59.4772 44.293C60.7099 45.2963 61.3262 46.7727 61.3262 48.722C61.3262 50.9867 60.4089 52.678 58.5742 53.796C56.7395 54.914 54.4892 55.473 51.8232 55.473C48.2685 55.473 45.3159 54.4553 42.9652 52.42L44.9862 50.055C45.9035 50.8003 46.9499 51.4023 48.1252 51.861C49.3005 52.291 50.5332 52.506 51.8232 52.506Z" fill="white"/>
</g>
<defs>
<clipPath id="clip0_301_179">
<rect width="80" height="80" fill="white"/>
</clipPath>
</defs>
</svg>
